<?xml version="1.0" standalone="no"?>
<!DOCTYPE svg PUBLIC "-//W3C//DTD SVG 20010904//EN"
 "http://www.w3.org/TR/2001/REC-SVG-20010904/DTD/svg10.dtd">
<svg version="1.0" xmlns="http://www.w3.org/2000/svg"
 width="300.000000pt" height="300.000000pt" viewBox="0 0 300.000000 300.000000"
 preserveAspectRatio="xMidYMid meet">
<metadata>
Created by potrace 1.11, written by Peter Selinger 2001-2013
</metadata>
<g transform="translate(0.000000,300.000000) scale(0.100000,-0.100000)"
fill="#000000" stroke="none">
<path d="M2610 2942 c0 -5 -22 -8 -50 -6 -27 1 -47 -2 -44 -7 3 -5 -1 -12 -10
-15 -15 -6 -18 -44 -3 -44 4 0 5 -5 1 -12 -4 -7 -3 -8 4 -4 9 5 9 13 1 28 -9
16 -8 19 2 13 7 -5 10 -4 5 3 -3 6 -1 14 6 19 16 10 42 14 33 5 -4 -4 -12 -7
-18 -7 -7 0 -12 -17 -13 -40 -1 -45 5 -67 15 -61 4 3 13 -5 21 -17 12 -20 12
-21 -3 -9 -12 11 -17 11 -23 0 -4 -7 -4 -10 1 -6 14 13 40 -24 37 -53 -2 -15
2 -30 8 -34 8 -5 8 -11 1 -19 -8 -9 -7 -13 3 -13 14 0 16 14 4 33 -4 6 -1 11
6 11 8 0 12 -13 10 -36 -1 -20 -3 -37 -4 -38 -1 -2 -3 -9 -4 -15 -1 -7 -8 -12
-16 -10 -12 3 -13 1 -2 -10 11 -11 14 -10 22 2 5 8 6 18 4 22 -3 4 0 8 6 8 14
0 3 -41 -14 -52 -8 -6 -7 -8 1 -8 18 0 10 -38 -12 -53 -14 -11 -15 -16 -5 -22
9 -5 11 -4 6 3 -11 18 0 14 15 -5 9 -10 9 -14 2 -10 -8 5 -18 -4 -28 -25 l-16
-33 20 23 c11 13 22 18 26 12 3 -5 1 -10 -5 -10 -6 0 -8 -5 -4 -12 5 -7 3 -8
-6 -3 -10 6 -12 4 -7 -8 3 -9 2 -19 -3 -22 -14 -9 -12 -52 3 -59 6 -3 2 -3 -9
-1 -17 5 -21 1 -20 -17 1 -13 -2 -29 -7 -35 -6 -9 -4 -15 5 -18 22 -9 18 -70
-4 -70 -9 0 -20 -4 -25 -9 -4 -5 -3 -6 5 -2 6 4 12 2 12 -4 0 -6 6 -8 13 -4 6
4 9 4 5 -1 -4 -4 -3 -17 3 -29 9 -19 9 -20 -4 -3 -13 16 -15 16 -21 1 -9 -22
-8 -26 5 -18 7 4 10 1 7 -7 -3 -8 -11 -13 -17 -11 -7 1 -5 -10 5 -30 17 -32
17 -33 -2 -18 -18 15 -18 14 -1 -12 21 -34 15 -36 -13 -5 -19 20 -21 20 -14 2
4 -11 12 -23 18 -27 16 -11 16 -37 -1 -31 -12 5 -12 7 -1 15 9 7 8 8 -5 4 -10
-3 -21 -6 -24 -6 -3 0 5 -8 18 -18 17 -15 19 -21 9 -27 -9 -6 -11 -4 -5 6 8
12 6 12 -8 0 -18 -15 -23 -26 -7 -16 6 3 10 1 10 -5 0 -6 5 -8 12 -4 7 4 8 3
4 -5 -4 -6 -11 -9 -16 -6 -5 3 -12 0 -16 -6 -4 -8 -3 -9 4 -5 7 4 12 1 12 -8
0 -9 6 -16 13 -16 9 0 8 -3 -2 -9 -8 -5 -10 -14 -5 -22 6 -10 3 -10 -11 1 -11
9 -16 10 -11 3 4 -8 2 -13 -6 -14 -7 0 -2 -5 11 -10 18 -7 21 -12 12 -23 -6
-7 -7 -17 -3 -21 4 -5 1 -5 -6 -1 -10 6 -11 11 0 24 10 14 10 15 -2 5 -20 -18
-21 -53 -1 -45 14 5 14 3 3 -11 -8 -9 -11 -21 -7 -27 3 -5 2 -10 -4 -10 -6 0
-15 -10 -21 -22 -11 -22 -11 -22 4 -4 13 17 18 18 29 6 10 -10 9 -11 -2 -5
-11 6 -13 4 -8 -8 6 -16 -4 -21 -40 -20 -7 1 -10 -3 -7 -9 3 -5 13 -6 23 -3
12 3 17 -1 18 -15 1 -11 -3 -20 -8 -20 -6 0 -7 4 -4 10 3 6 -1 7 -10 3 -9 -3
-13 -9 -8 -12 7 -5 14 -27 17 -58 0 -6 -3 -12 -8 -12 -7 0 -36 -46 -36 -58 0
-3 9 5 20 18 10 13 19 19 20 14 0 -6 -6 -17 -12 -24 -9 -10 -9 -12 -1 -7 6 3
15 1 19 -5 4 -8 3 -9 -4 -5 -7 4 -12 2 -12 -4 0 -6 -4 -9 -9 -5 -5 3 -13 0
-17 -6 -4 -8 -3 -9 4 -5 7 4 12 2 12 -4 0 -6 5 -8 12 -4 6 4 8 3 4 -4 -3 -6
-15 -9 -26 -7 -12 2 -18 0 -15 -6 4 -5 10 -7 15 -4 4 3 10 -4 13 -16 4 -15 2
-18 -7 -10 -9 8 -13 7 -13 -4 0 -8 4 -15 9 -15 4 0 8 -5 8 -11 0 -5 -6 -7 -12
-3 -7 4 -5 -2 5 -13 12 -14 15 -23 7 -28 -5 -3 -8 -11 -5 -16 4 -5 -3 -9 -14
-9 -12 0 -21 -5 -21 -10 0 -6 3 -9 8 -9 25 4 34 -3 15 -11 -13 -5 -23 -15 -22
-22 0 -10 2 -10 6 0 2 6 9 12 14 12 4 0 5 -7 2 -17 -4 -10 -2 -14 4 -10 8 5 7
-1 0 -18 -7 -14 -16 -25 -20 -25 -5 0 -5 -5 -2 -10 4 -6 10 -8 15 -5 11 7 6
-23 -6 -35 -7 -7 -11 -6 -11 4 0 8 5 12 10 9 6 -3 7 -1 3 6 -6 9 -11 9 -22 0
-12 -10 -12 -14 -1 -28 8 -9 18 -23 22 -31 8 -13 6 -13 -7 -2 -11 9 -18 10
-23 2 -3 -6 -11 -7 -17 -4 -7 4 -8 2 -4 -5 4 -6 12 -9 17 -6 5 4 17 1 26 -4
12 -7 14 -10 4 -11 -11 0 -11 -3 0 -17 8 -9 9 -14 3 -10 -7 4 -17 0 -23 -7 -7
-9 -8 -17 -2 -20 13 -8 6 -42 -8 -38 -14 3 -14 -4 1 -31 11 -21 10 -21 -8 -7
-10 8 -16 10 -12 6 4 -5 3 -15 -4 -23 -8 -11 -7 -12 5 -7 11 4 15 0 13 -13 -2
-10 2 -22 8 -26 6 -5 2 -6 -11 -2 -12 3 -24 1 -28 -5 -4 -6 -3 -10 2 -9 34 6
39 -25 5 -34 -15 -4 -15 -5 1 -6 19 -1 23 -16 5 -27 -7 -5 -8 -3 -3 6 5 9 4
11 -3 6 -9 -5 -9 -12 0 -25 8 -14 7 -25 -5 -49 -15 -31 -15 -31 4 -21 11 5 16
15 13 21 -4 7 -3 8 4 4 16 -10 16 -12 -15 -42 -23 -21 -24 -24 -6 -15 32 16
36 14 13 -9 l-21 -21 23 -20 c13 -11 18 -18 12 -15 -7 3 -14 -5 -16 -18 -3
-17 -1 -23 8 -19 6 2 15 -1 20 -8 4 -8 3 -10 -4 -5 -7 4 -12 2 -12 -4 0 -6 -6
-8 -12 -4 -7 3 1 -6 17 -20 21 -19 24 -24 8 -17 -24 12 -26 1 -5 -35 6 -12 9
-23 7 -26 -3 -3 2 -5 10 -5 11 0 12 4 4 14 -9 9 -8 13 0 13 7 0 9 5 5 12 -4 6
-3 8 3 5 11 -7 11 -36 -2 -56 -5 -10 -4 -12 3 -7 8 5 12 -1 12 -18 0 -14 8
-29 17 -35 13 -7 14 -12 6 -23 -9 -10 -6 -13 15 -15 14 0 31 -8 37 -17 7 -9
16 -12 20 -8 5 4 5 1 0 -7 -7 -12 -10 -11 -22 4 -12 17 -13 17 -13 2 0 -9 5
-17 10 -17 6 0 10 -8 10 -17 0 -15 1 -15 13 2 11 14 16 15 22 5 6 -9 4 -11 -5
-5 -9 5 -11 4 -6 -4 4 -7 15 -11 24 -9 10 1 24 -2 32 -7 8 -5 20 -10 25 -10 6
0 8 -9 7 -20 -3 -16 -2 -17 12 -6 11 9 16 10 16 2 0 -6 5 -11 11 -11 5 0 8 4
5 8 -2 4 6 8 19 8 14 0 21 -4 18 -10 -4 -6 3 -3 14 7 11 9 23 14 27 10 11 -12
36 -12 33 0 -1 6 4 12 11 13 6 1 15 3 20 4 4 1 11 2 15 1 5 -1 6 3 2 9 -3 6
-11 8 -16 5 -5 -3 -6 1 -3 9 3 9 13 16 21 16 8 0 11 -4 8 -10 -3 -5 -4 -10 -1
-10 10 0 66 82 66 96 0 8 -7 11 -17 8 -17 -5 -17 -5 0 6 9 6 15 14 13 18 -3 4
4 8 15 8 10 0 19 -5 19 -10 0 -5 2 -7 5 -4 3 3 1 17 -4 31 -7 18 -7 28 1 33 7
5 8 2 3 -7 -5 -8 -4 -11 0 -6 5 4 10 18 12 30 2 17 1 19 -7 7 -7 -12 -9 -10
-7 8 1 16 6 21 16 17 9 -3 12 -3 8 1 -4 4 -1 14 6 23 10 14 10 14 -5 3 -12
-10 -18 -10 -24 -1 -5 8 -3 9 5 5 15 -10 11 25 -4 36 -6 5 -6 8 2 8 7 0 17 -8
22 -17 14 -24 14 -7 0 19 -8 15 -8 19 0 14 6 -4 11 -3 11 3 0 6 8 8 18 4 18
-7 17 -5 -12 17 -13 10 -17 10 -12 3 4 -7 3 -13 -1 -13 -5 0 -14 10 -22 23
-13 20 -13 21 2 9 10 -9 17 -10 22 -2 3 5 11 10 16 10 6 0 8 -4 4 -9 -3 -5 -1
-12 4 -15 5 -4 8 2 6 11 -1 12 -10 17 -24 16 -11 -2 -21 2 -21 7 0 9 22 14 43
11 14 -2 7 8 -14 20 -15 8 -19 8 -15 0 4 -6 3 -11 -3 -11 -5 0 -10 8 -11 18 0
9 -1 34 -1 54 -1 21 -5 36 -8 33 -9 -5 -6 55 4 77 4 10 11 15 17 12 5 -3 4 3
-4 15 -7 12 -16 21 -20 21 -5 0 -8 5 -8 11 0 6 7 8 18 4 13 -5 14 -3 5 6 -6 6
-9 18 -6 27 5 11 3 13 -8 7 -11 -7 -11 -5 1 10 14 17 13 18 -2 12 -13 -4 -16
-2 -11 11 3 9 11 23 16 30 5 7 7 15 3 19 -3 3 -6 1 -6 -5 0 -7 -3 -12 -7 -12
-5 0 -8 13 -8 29 0 16 3 27 7 25 4 -2 9 0 12 5 4 5 2 12 -3 16 -5 3 -8 14 -6
25 2 12 0 18 -6 15 -5 -4 -7 -11 -4 -16 3 -5 -1 -6 -10 -3 -13 5 -11 11 12 31
23 22 24 25 6 19 -14 -4 -23 -2 -26 8 -4 11 -1 13 11 9 9 -3 14 -3 10 2 -4 4
-2 15 5 23 10 13 9 14 -9 4 -16 -8 -21 -8 -21 1 0 7 -4 21 -7 32 -6 17 -5 16
6 -2 10 -16 17 -20 28 -13 13 8 12 10 -2 10 -21 0 -25 40 -5 40 9 0 8 3 -2 9
-7 5 -11 13 -7 19 3 6 2 13 -4 17 -6 4 -7 11 -4 17 4 7 2 8 -4 4 -7 -4 -12 -2
-12 4 0 6 -5 8 -12 4 -7 -4 -8 -3 -4 5 4 6 12 9 17 5 6 -3 8 5 5 20 -2 14 1
27 7 30 8 3 8 5 -1 5 -7 1 -10 6 -6 13 4 7 3 8 -5 4 -6 -4 -8 -13 -5 -19 4 -7
3 -8 -2 -4 -5 5 -9 12 -9 15 0 4 -4 13 -9 21 -6 9 -5 12 2 8 13 -9 42 2 42 15
0 7 -5 6 -13 -1 -14 -11 -27 -5 -27 11 0 5 5 6 11 2 7 -4 10 -1 7 7 -3 8 2 23
11 34 15 19 15 19 -4 5 -11 -8 -23 -19 -27 -25 -4 -6 -8 -6 -8 -1 0 6 10 21
23 34 l22 25 -22 -12 c-15 -8 -23 -8 -23 -1 0 5 5 10 11 10 6 0 7 5 2 13 -4 6
-8 20 -9 30 -1 9 -3 19 -4 22 -7 13 -5 52 2 68 7 13 4 19 -14 27 -13 5 -17 9
-10 9 7 1 23 -4 35 -10 19 -9 20 -8 6 3 -9 7 -14 23 -12 37 3 20 1 22 -12 11
-9 -7 -18 -10 -22 -6 -3 3 -1 6 5 6 7 0 12 8 12 17 0 9 8 25 17 35 14 15 14
19 3 16 -8 -2 -14 3 -12 10 1 8 -2 11 -7 8 -5 -4 -8 -15 -6 -26 2 -11 -2 -23
-8 -26 -7 -4 -9 -4 -5 1 4 4 3 14 -3 21 -7 8 -7 14 1 19 5 3 10 11 10 16 0 6
-5 7 -11 3 -6 -3 -4 4 4 17 13 20 13 27 3 41 -7 10 -15 16 -17 13 -3 -2 -5 5
-5 15 0 18 1 18 20 2 19 -17 19 -17 2 10 -16 25 -16 27 1 38 16 10 16 11 1 6
-23 -7 -33 11 -16 31 11 14 11 16 -4 10 -12 -4 -15 -2 -11 8 3 8 9 13 13 10 5
-3 12 0 16 6 4 8 3 9 -4 5 -6 -4 -16 4 -23 16 -11 20 -10 21 2 11 13 -10 15
-8 13 15 -2 41 -3 44 -14 37 -11 -7 -2 23 13 43 9 11 3 16 -15 14 -3 -1 -9 6
-12 14 -4 11 -2 15 7 11 9 -3 12 4 11 22 -2 40 -3 41 -20 41 -8 0 -12 5 -9 10
4 6 11 7 17 4 7 -4 8 -2 4 5 -4 6 -11 9 -16 6 -5 -3 -11 -1 -14 4 -4 5 -1 13
5 17 8 5 9 3 4 -7 -6 -11 -5 -12 5 -2 16 15 23 46 8 37 -5 -3 -8 2 -6 12 2 13
-3 19 -14 18 -10 -1 -14 4 -11 13 3 8 -3 21 -13 29 -18 14 -18 15 3 5 28 -14
28 -14 30 9 1 11 -3 20 -8 20 -6 0 -7 -6 -3 -12 5 -8 1 -8 -12 2 -29 22 -30
24 -11 17 13 -5 17 -1 17 16 0 18 -2 19 -11 7 -9 -13 -10 -12 -5 2 3 10 1 20
-4 23 -12 7 14 61 32 69 7 3 0 2 -16 -1 -24 -5 -28 -3 -23 10 3 9 2 19 -4 23
-6 4 -6 11 2 20 10 12 8 17 -6 28 -14 10 -15 15 -5 21 8 5 11 4 7 -2 -3 -5 0
-10 8 -10 10 0 12 4 5 12 -5 7 -6 16 -2 20 4 5 1 5 -5 1 -13 -7 -16 0 -16 35
0 9 -6 16 -13 16 -10 0 -11 -4 -3 -13 7 -8 7 -14 -1 -19 -6 -4 -9 -1 -8 7 2 7
-2 12 -8 11 -7 -1 -10 10 -8 27 4 32 -4 37 -25 18 -10 -9 -12 -9 -7 -1 3 6 -2
16 -11 22 -10 6 -13 11 -7 11 5 0 15 -5 22 -12 9 -9 12 -9 12 0 0 7 -5 12 -11
12 -5 0 -7 5 -3 12 4 6 3 8 -4 5 -19 -12 -43 4 -37 24 4 11 4 19 1 19 -3 0 -6
-4 -6 -8z m175 -502 c-3 -5 -12 -10 -18 -10 -7 0 -6 4 3 10 19 12 23 12 15 0z
m10 -30 c3 -6 -1 -7 -9 -4 -18 7 -21 14 -7 14 6 0 13 -4 16 -10z m10 -100 c-5
-8 -11 -8 -17 -2 -6 6 -7 16 -3 22 5 8 11 8 17 2 6 -6 7 -16 3 -22z m-231 4
c3 -8 2 -12 -4 -9 -6 3 -10 10 -10 16 0 14 7 11 14 -7z m241 -64 c-3 -5 -12
-10 -18 -10 -7 0 -6 4 3 10 19 12 23 12 15 0z m5 -68 c0 -5 -7 -9 -15 -9 -8 0
-12 4 -9 9 3 4 9 8 15 8 5 0 9 -4 9 -8z m-250 -76 c0 -3 -4 -8 -10 -11 -5 -3
-10 -1 -10 4 0 6 5 11 10 11 6 0 10 -2 10 -4z m262 -150 c7 4 8 2 4 -5 -9 -13
-26 -5 -25 12 0 9 2 8 6 -1 2 -6 10 -9 15 -6z m-328 -402 c3 -8 2 -12 -4 -9
-6 3 -10 10 -10 16 0 14 7 11 14 -7z m386 -108 c0 -3 -4 -8 -10 -11 -5 -3 -10
-1 -10 4 0 6 5 11 10 11 6 0 10 -2 10 -4z m8 -93 c-6 -7 -16 -13 -22 -13 -6 0
-5 4 3 9 13 8 13 12 0 27 -13 16 -12 16 8 4 16 -11 19 -17 11 -27z m7 -23 c-3
-5 -12 -10 -18 -10 -7 0 -6 4 3 10 19 12 23 12 15 0z m30 -190 c3 -6 -1 -7 -9
-4 -18 7 -21 14 -7 14 6 0 13 -4 16 -10z m10 -209 c3 -5 2 -12 -3 -15 -5 -3
-9 1 -9 9 0 17 3 19 12 6z m-63 -540 c-8 -4 -12 -10 -11 -12 2 -2 -4 -14 -12
-27 -15 -20 -17 -21 -23 -6 -4 9 -4 19 -1 22 3 3 5 0 5 -8 0 -10 3 -10 15 0 8
6 14 15 13 18 -1 16 3 22 15 22 9 0 9 -2 -1 -9z m-87 -91 c3 -6 -1 -7 -9 -4
-18 7 -21 14 -7 14 6 0 13 -4 16 -10z m-30 -9 c3 -5 2 -12 -3 -15 -5 -3 -9 1
-9 9 0 17 3 19 12 6z"/>
<path d="M2100 2874 c0 -8 5 -12 10 -9 6 4 8 11 5 16 -9 14 -15 11 -15 -7z"/>
<path d="M2163 2874 c-4 -12 -8 -13 -14 -3 -6 10 -12 10 -27 -4 -17 -15 -21
-16 -31 -3 -9 10 -20 12 -41 6 -16 -4 -31 -6 -34 -3 -3 3 -10 -5 -16 -19 -6
-13 -21 -30 -32 -37 -11 -7 -17 -8 -14 -2 4 5 2 12 -3 15 -14 9 -42 -5 -35
-18 3 -6 -1 -3 -8 6 -13 15 -15 15 -26 -2 -7 -12 -18 -17 -29 -14 -15 5 -15 4
-3 -5 8 -5 11 -13 7 -17 -3 -4 -15 -1 -24 7 -16 12 -17 12 -5 -2 17 -22 -7
-45 -28 -26 -10 10 -12 9 -7 -5 4 -12 1 -16 -13 -13 -11 2 -22 -1 -25 -6 -4
-5 -11 -6 -17 -3 -7 4 -8 2 -4 -5 6 -9 11 -9 21 -1 9 8 14 7 18 -4 4 -11 1
-13 -10 -9 -11 5 -14 3 -8 -6 6 -10 3 -11 -13 -2 -27 14 -29 14 -36 -5 -5 -14
-4 -15 8 -5 11 9 16 9 22 -1 4 -7 3 -10 -1 -5 -5 4 -17 -1 -28 -10 -11 -10
-17 -13 -14 -6 4 6 3 14 -3 18 -5 3 -10 -3 -10 -14 0 -12 -5 -21 -11 -21 -5 0
-7 5 -4 10 3 6 4 10 0 10 -3 0 -10 -11 -15 -25 -7 -18 -14 -23 -26 -18 -12 4
-15 3 -10 -6 4 -6 4 -11 -1 -10 -27 5 -45 -2 -39 -16 7 -19 -27 -38 -41 -24
-8 8 -13 7 -18 -2 -6 -8 -4 -10 5 -4 9 5 11 4 6 -3 -4 -7 -19 -12 -34 -13 -15
0 -21 -3 -14 -6 6 -2 12 -9 12 -14 0 -6 -10 -5 -22 2 -18 9 -21 9 -11 -1 6 -7
9 -19 6 -27 -4 -11 -8 -10 -20 4 -14 17 -14 17 -9 -1 5 -15 4 -17 -8 -7 -11 9
-16 9 -22 0 -5 -8 -3 -9 5 -4 10 6 11 3 2 -14 -7 -11 -14 -21 -17 -21 -3 0 -3
4 1 9 3 5 1 12 -5 16 -9 5 -15 -15 -11 -38 1 -5 -3 -6 -9 -2 -6 3 -8 11 -5 16
4 5 1 9 -6 9 -6 0 -9 -8 -6 -19 3 -15 1 -18 -11 -14 -11 5 -13 3 -7 -8 6 -11
5 -11 -5 -2 -14 13 -40 7 -40 -9 0 -6 8 -4 18 3 15 12 16 12 5 -2 -7 -9 -11
-18 -9 -20 2 -2 -7 -5 -20 -5 -13 -1 -21 2 -18 7 3 5 0 9 -7 9 -6 0 -9 -8 -6
-20 3 -11 0 -23 -5 -27 -6 -3 -9 -2 -6 3 3 5 0 14 -7 21 -10 10 -14 9 -19 -3
-3 -9 -1 -12 4 -9 15 9 11 -8 -7 -30 -14 -18 -15 -19 -9 -1 5 15 4 17 -7 8 -8
-7 -17 -10 -21 -7 -3 3 -2 -1 4 -7 5 -7 10 -17 10 -22 0 -6 -4 -4 -9 3 -8 12
-13 11 -31 -10 -12 -13 -19 -18 -15 -11 3 6 2 12 -4 12 -5 0 -13 -9 -16 -20
-3 -11 -17 -23 -31 -26 -13 -3 -21 -11 -17 -17 4 -6 1 -7 -8 -1 -21 13 -44 15
-31 2 12 -12 5 -38 -10 -38 -6 0 -4 7 3 17 13 15 12 15 -7 5 -12 -6 -25 -8
-30 -4 -5 4 -2 -2 6 -12 8 -11 10 -17 4 -13 -7 4 -14 0 -18 -8 -3 -8 -12 -12
-21 -9 -8 3 -12 10 -9 15 3 5 -2 6 -11 3 -14 -6 -14 -7 0 -18 14 -10 13 -14
-10 -34 -14 -12 -28 -22 -33 -22 -4 1 7 12 23 26 19 16 22 22 9 15 -12 -6 -25
-7 -29 -3 -5 4 -6 2 -2 -4 3 -5 -5 -18 -18 -28 -14 -10 -22 -23 -18 -29 3 -5
1 -7 -5 -3 -6 3 -13 2 -17 -4 -3 -5 -11 -10 -16 -10 -6 0 -7 6 -3 13 6 9 5 9
-8 0 -8 -7 -18 -10 -22 -6 -4 4 -4 0 0 -10 3 -9 11 -14 17 -10 5 3 8 2 4 -3
-3 -5 -21 -9 -41 -8 -20 1 -33 -2 -30 -7 3 -5 9 -7 14 -4 5 3 11 1 14 -4 3 -4
-4 -8 -17 -7 -13 1 -22 -5 -22 -14 0 -9 -8 -14 -19 -12 -12 2 -15 -1 -11 -8 6
-9 2 -9 -13 -1 -23 12 -49 -8 -32 -25 7 -7 0 -9 -20 -8 -26 2 -28 0 -20 -16 8
-15 6 -17 -10 -13 -11 3 -17 10 -13 16 3 6 1 7 -6 3 -8 -5 -9 -12 -2 -20 7 -8
6 -17 -1 -26 -8 -12 -9 -11 -4 3 4 12 2 17 -6 14 -7 -2 -12 -10 -10 -17 2 -8
-7 -11 -27 -8 -23 3 -28 2 -20 -8 7 -8 6 -14 -2 -20 -8 -4 -9 -3 -5 4 4 7 2
12 -3 12 -9 0 -15 -19 -13 -41 1 -3 -6 -6 -13 -6 -12 0 -12 3 -2 15 10 13 9
14 -11 3 -12 -6 -28 -9 -35 -6 -6 4 -3 -1 7 -9 11 -9 16 -19 13 -23 -4 -4 -12
-2 -19 5 -14 14 -49 -3 -42 -22 3 -7 -3 -19 -13 -27 -16 -13 -17 -12 -4 4 8
10 9 17 3 17 -11 0 -38 -41 -33 -48 2 -2 0 -6 -3 -9 -3 -3 -4 4 -1 15 3 19 1
20 -15 10 -13 -8 -16 -16 -10 -23 7 -8 1 -11 -19 -10 -21 1 -31 -4 -34 -17 -3
-10 -13 -18 -22 -18 -10 0 -13 5 -9 12 4 7 3 8 -5 4 -9 -6 -9 -11 1 -24 12
-14 10 -14 -12 -2 -22 12 -24 11 -13 -2 17 -19 4 -31 -15 -15 -13 9 -14 9 -8
0 4 -7 2 -13 -3 -13 -6 0 -10 -6 -9 -12 2 -7 -6 -14 -17 -14 -52 -4 -51 -4
-36 -13 8 -5 21 -7 30 -4 12 3 12 2 -2 -7 -9 -6 -23 -8 -30 -4 -7 5 -6 0 3
-11 14 -17 13 -18 -3 -12 -11 4 -16 3 -12 -3 3 -6 -1 -13 -10 -16 -12 -5 -13
-9 -4 -20 10 -12 8 -13 -6 -8 -15 6 -16 4 -6 -14 8 -15 8 -23 -1 -28 -6 -4 -8
-3 -4 4 3 6 3 13 -2 16 -4 2 -8 -6 -8 -19 0 -13 3 -22 7 -19 4 2 7 -5 6 -16
-1 -13 -6 -19 -16 -15 -11 4 -11 2 -3 -8 7 -8 9 -17 5 -20 -3 -4 -1 -7 5 -7 7
0 12 -5 12 -11 0 -5 -6 -7 -13 -3 -6 4 -2 -3 10 -15 12 -11 27 -21 34 -21 8 0
8 -5 -2 -17 -11 -16 -11 -16 1 -5 8 7 15 20 15 30 0 11 7 16 17 14 20 -3 25
14 6 20 -7 3 -5 7 6 11 9 4 15 3 13 -1 -3 -4 1 -13 8 -19 11 -10 13 -6 8 22
-4 24 -2 35 6 35 7 0 10 -4 6 -9 -3 -5 -1 -12 4 -15 11 -7 9 13 -3 33 -6 9 -5
12 1 8 6 -4 13 0 16 7 3 8 1 17 -6 20 -7 3 -6 5 3 5 30 -2 41 1 35 10 -3 5 4
16 15 24 11 7 17 17 13 21 -4 4 1 4 11 0 17 -7 17 -8 -3 -19 -12 -6 -18 -15
-14 -20 5 -4 2 -5 -6 0 -10 6 -12 4 -6 -5 6 -10 11 -9 22 5 7 11 13 15 13 9 0
-5 4 -2 10 6 6 9 5 19 -3 29 -10 12 -9 12 13 1 23 -12 24 -12 11 4 -8 9 -10
16 -5 15 5 -1 24 -1 42 0 25 1 35 6 39 21 3 11 9 17 14 14 5 -3 7 -9 4 -14 -3
-5 -1 -11 4 -15 10 -6 7 25 -4 48 -4 6 2 2 13 -10 18 -21 32 -21 32 -1 0 5 -4
6 -10 3 -5 -3 -10 -1 -10 5 0 6 6 10 13 9 26 -3 38 1 31 13 -5 7 -3 8 5 3 9
-5 10 -10 2 -18 -6 -6 -11 -16 -11 -22 0 -5 5 -2 11 8 6 9 15 15 21 11 7 -4 8
1 3 16 -6 20 -5 21 8 9 8 -8 12 -21 10 -29 -4 -13 -3 -13 5 -1 6 8 8 20 5 28
-3 8 0 13 8 11 8 -2 13 3 11 10 -1 8 2 11 7 8 5 -4 12 -2 16 4 4 6 11 8 16 4
5 -3 17 0 25 7 12 10 13 9 7 -7 -6 -17 -5 -17 10 -5 9 7 24 10 33 7 14 -6 15
-4 4 9 -11 13 -11 16 1 13 8 -2 17 -7 21 -13 4 -5 10 -6 14 -2 4 3 1 15 -7 24
-12 16 -12 17 1 6 22 -17 60 -12 71 8 5 10 27 20 49 24 22 4 38 11 34 16 -3 5
-10 6 -16 3 -7 -5 -8 -2 -3 6 6 10 12 8 27 -9 11 -14 18 -18 18 -10 0 8 8 23
17 34 8 11 13 13 10 5 -19 -55 -20 -56 -4 -38 8 10 17 15 21 11 4 -4 4 0 1 8
-3 9 2 22 12 30 16 13 17 12 5 -2 -10 -14 -10 -18 3 -23 9 -3 13 -2 10 4 -3 6
1 10 9 10 9 0 16 8 16 18 0 13 2 14 9 4 6 -10 10 -10 20 2 10 12 18 13 33 5
15 -8 19 -8 13 0 -4 8 2 10 19 7 14 -3 28 0 32 5 3 5 10 6 16 3 7 -4 8 -2 4 5
-4 6 -12 8 -18 5 -7 -4 -8 -2 -4 4 4 7 2 12 -5 12 -7 0 -10 3 -7 6 4 3 15 1
26 -5 16 -8 21 -7 26 4 6 16 36 21 36 7 0 -5 7 -9 15 -9 11 0 12 4 3 14 -8 11
-7 12 5 7 12 -4 15 -1 12 15 -2 12 0 19 6 16 5 -4 7 -10 4 -15 -3 -5 -1 -11 5
-15 6 -4 7 -12 4 -18 -4 -7 -3 -8 2 -4 4 4 9 18 9 30 0 12 5 22 10 22 6 0 16
4 23 8 7 5 12 4 12 -2 0 -10 -14 -15 -32 -12 -4 0 -5 -6 -2 -13 5 -12 9 -12
25 2 10 9 19 23 19 32 1 11 3 10 12 -4 10 -18 11 -18 29 5 11 13 17 17 14 8
-4 -10 0 -16 9 -16 8 0 12 6 9 14 -4 9 0 11 13 6 17 -6 17 -5 6 10 -12 15 -11
15 20 7 40 -12 47 -12 29 -1 -10 7 -11 12 -1 27 9 15 10 15 6 2 -2 -9 1 -19 8
-21 8 -3 13 1 12 11 -1 11 7 17 22 18 12 1 22 -3 22 -8 0 -5 5 -6 10 -3 6 4 8
10 5 15 -3 5 -1 11 4 14 5 4 13 1 17 -5 5 -8 3 -9 -6 -4 -9 5 -11 4 -6 -4 10
-16 29 -2 21 16 -4 12 -2 13 7 6 13 -10 58 0 58 12 0 4 -4 3 -10 0 -6 -4 -7 1
-3 11 5 14 8 13 19 -7 7 -13 13 -18 14 -11 0 7 4 11 9 7 5 -3 12 -1 16 5 4 6
10 8 15 5 5 -3 12 0 16 6 4 8 3 9 -4 5 -8 -5 -10 -2 -6 8 5 12 9 13 19 3 7 -7
11 -16 8 -20 -3 -5 4 -4 15 2 14 8 19 17 15 29 -6 14 -4 15 9 4 13 -10 18 -9
29 5 8 9 9 14 3 10 -6 -3 -11 0 -11 7 0 7 12 13 26 14 32 1 53 6 67 15 14 8
37 -16 26 -28 -4 -5 -1 -5 6 -1 9 5 9 12 1 28 -7 14 -8 18 0 14 6 -4 16 2 23
13 9 15 15 17 25 9 10 -8 13 -7 13 3 0 8 6 6 16 -7 8 -10 13 -13 9 -7 -4 9 3
12 24 9 22 -2 28 0 24 11 -4 11 -8 11 -22 1 -14 -12 -15 -11 -2 5 8 9 16 15
19 12 3 -3 11 0 18 6 8 7 14 6 20 -2 4 -7 3 -9 -4 -5 -6 3 -13 2 -16 -3 -11
-17 11 -22 24 -6 9 11 16 12 25 5 10 -8 15 -8 21 1 4 7 3 9 -4 5 -6 -3 -13 -2
-17 4 -4 6 -11 8 -16 5 -5 -4 -9 -1 -9 5 0 6 6 10 13 9 24 -3 38 1 33 9 -3 5
1 9 9 9 8 0 11 -5 8 -11 -3 -6 -3 -8 2 -4 4 4 15 2 24 -5 14 -11 14 -10 2 6
-12 15 -12 20 -1 30 10 10 11 9 6 -3 -5 -9 -2 -8 7 3 16 19 32 24 21 5 -4 -7
-3 -8 5 -4 9 6 9 11 1 21 -9 11 -7 12 9 8 14 -3 23 0 27 11 3 9 10 16 15 16 4
0 5 -8 2 -17 -4 -10 5 -5 19 12 21 24 24 34 16 50 -10 19 -10 19 9 3 22 -20
46 -7 36 20 -5 11 -3 13 8 7 12 -8 12 -6 0 8 -8 10 -11 20 -7 24 3 3 6 2 6 -4
0 -6 7 -13 15 -17 16 -6 16 14 0 26 -5 4 1 8 15 9 14 0 19 3 13 6 -7 2 -13 9
-13 15 0 6 7 8 15 5 17 -7 30 9 15 18 -5 3 -10 11 -10 17 0 6 10 3 21 -8 22
-19 22 -19 9 5 -11 21 -10 23 4 18 8 -3 18 -1 22 5 4 7 3 8 -4 4 -8 -5 -12 2
-12 19 0 14 4 24 9 20 16 -9 22 12 7 24 -7 6 -13 23 -13 37 0 17 2 22 7 13 5
-6 6 -19 3 -28 -3 -12 -2 -13 4 -4 11 15 8 73 -4 82 -4 3 -8 12 -9 19 -1 6 -2
19 -2 27 -1 9 -10 15 -19 13 -10 -2 -17 3 -16 10 2 6 -2 12 -8 12 -5 0 -8 4
-4 9 3 5 -4 12 -15 16 -11 3 -20 13 -20 21 0 8 -5 12 -10 9 -6 -4 -7 -12 -3
-18 5 -8 2 -8 -9 0 -8 7 -18 9 -23 5 -4 -4 -2 4 5 18 12 22 11 23 -1 13 -17
-13 -59 -14 -59 0 0 5 8 6 19 2 11 -3 24 1 32 12 13 17 13 17 -5 3 -15 -11
-20 -12 -23 -3 -4 10 -11 9 -33 -2 -25 -13 -29 -13 -40 0 -16 19 -29 19 -37
-1z m27 -4 c0 -5 -2 -10 -4 -10 -3 0 -8 5 -11 10 -3 6 -1 10 4 10 6 0 11 -4
11 -10z m-146 -18 c-5 -4 -12 -11 -15 -15 -3 -5 -9 -2 -12 5 -3 9 3 14 15 15
11 1 16 -1 12 -5z m-154 -67 c-7 -9 -15 -13 -17 -11 -6 6 20 36 26 30 2 -2 -2
-10 -9 -19z m535 -45 c3 -5 1 -10 -4 -10 -6 0 -11 5 -11 10 0 6 2 10 4 10 3 0
8 -4 11 -10z m20 -58 c-3 -3 -11 0 -18 7 -9 10 -8 11 6 5 10 -3 15 -9 12 -12z
m-115 -286 c0 -3 -4 -8 -10 -11 -5 -3 -10 -1 -10 4 0 6 5 11 10 11 6 0 10 -2
10 -4z m-46 -25 c3 -5 -1 -14 -8 -20 -10 -9 -16 -9 -21 -1 -4 6 -1 9 7 8 7 -2
12 3 11 10 -3 14 3 16 11 3z m-554 -266 c7 -9 8 -15 2 -15 -5 0 -12 7 -16 15
-3 8 -4 15 -2 15 2 0 9 -7 16 -15z m-1051 -118 c0 -9 -2 -8 -6 1 -2 6 -10 9
-15 6 -7 -4 -8 -2 -4 5 9 13 26 5 25 -12z m417 -119 c3 -4 -1 -5 -10 -4 -8 1
-18 5 -22 8 -3 4 1 5 10 4 8 -1 18 -5 22 -8z m-682 -43 c-4 -8 -11 -12 -16 -9
-6 4 -5 10 3 15 19 12 19 11 13 -6z m349 -65 c-3 -12 -8 -19 -11 -16 -5 6 5
36 12 36 2 0 2 -9 -1 -20z m-28 -10 c3 -6 -1 -7 -9 -4 -18 7 -21 14 -7 14 6 0
13 -4 16 -10z m-637 -365 c-3 -3 -9 2 -12 12 -6 14 -5 15 5 6 7 -7 10 -15 7
-18z"/>
<path d="M1960 2834 c0 -8 5 -12 10 -9 6 4 8 11 5 16 -9 14 -15 11 -15 -7z"/>
<path d="M2405 2780 c-3 -6 1 -7 9 -4 18 7 21 14 7 14 -6 0 -13 -4 -16 -10z"/>
<path d="M2751 2706 c-8 -10 -9 -16 -1 -21 6 -3 7 -12 4 -18 -4 -7 -3 -8 2 -4
7 7 15 57 9 57 -2 0 -8 -6 -14 -14z"/>
<path d="M2575 2640 c-3 -6 1 -7 9 -4 18 7 21 14 7 14 -6 0 -13 -4 -16 -10z"/>
<path d="M2763 2611 c-9 -15 -9 -20 0 -24 7 -3 13 5 13 19 2 29 2 29 -13 5z"/>
<path d="M1540 2580 c0 -5 7 -7 15 -4 8 4 15 8 15 10 0 2 -7 4 -15 4 -8 0 -15
-4 -15 -10z"/>
<path d="M2585 2549 c-4 -6 -5 -12 -2 -15 2 -3 7 2 10 11 7 17 1 20 -8 4z"/>
<path d="M2555 2480 c3 -5 8 -10 11 -10 2 0 4 5 4 10 0 6 -5 10 -11 10 -5 0
-7 -4 -4 -10z"/>
<path d="M2780 2476 c0 -2 7 -7 16 -10 8 -3 12 -2 9 4 -6 10 -25 14 -25 6z"/>
<path d="M2556 2408 c3 -5 10 -6 15 -3 13 9 11 12 -6 12 -8 0 -12 -4 -9 -9z"/>
<path d="M1093 2303 c4 -3 1 -13 -6 -22 -11 -14 -10 -14 6 -2 20 15 22 31 5
31 -6 0 -8 -3 -5 -7z"/>
<path d="M2545 2250 c4 -7 2 -15 -5 -20 -9 -5 -8 -8 2 -13 17 -6 22 29 6 39
-7 5 -8 2 -3 -6z"/>
<path d="M1920 2175 c-8 -10 -8 -15 1 -21 8 -4 9 -3 5 4 -7 12 5 16 32 13 6
-1 12 2 12 6 0 14 -38 13 -50 -2z"/>
<path d="M1865 2151 c-3 -5 -2 -12 3 -15 5 -3 9 1 9 9 0 17 -3 19 -12 6z"/>
<path d="M841 2134 c-7 -8 -11 -17 -9 -20 3 -2 13 5 23 16 10 11 14 20 9 20
-5 -1 -15 -8 -23 -16z"/>
<path d="M1796 2125 c4 -8 8 -15 10 -15 2 0 4 7 4 15 0 8 -4 15 -10 15 -5 0
-7 -7 -4 -15z"/>
<path d="M1825 2130 c-3 -6 1 -7 9 -4 18 7 21 14 7 14 -6 0 -13 -4 -16 -10z"/>
<path d="M1470 2016 c0 -2 7 -7 16 -10 8 -3 12 -2 9 4 -6 10 -25 14 -25 6z"/>
<path d="M2490 1900 c0 -5 5 -10 11 -10 5 0 7 5 4 10 -3 6 -8 10 -11 10 -2 0
-4 -4 -4 -10z"/>
<path d="M1150 1889 c0 -5 5 -7 10 -4 6 3 10 8 10 11 0 2 -4 4 -10 4 -5 0 -10
-5 -10 -11z"/>
<path d="M275 1771 c-3 -5 -2 -12 3 -15 5 -3 9 1 9 9 0 17 -3 19 -12 6z"/>
<path d="M825 1760 c-3 -6 1 -7 9 -4 18 7 21 14 7 14 -6 0 -13 -4 -16 -10z"/>
<path d="M2865 1730 c-3 -6 1 -7 9 -4 18 7 21 14 7 14 -6 0 -13 -4 -16 -10z"/>
<path d="M2864 1693 c2 -10 6 -17 10 -16 15 3 16 11 2 22 -12 10 -14 9 -12 -6z"/>
<path d="M567 1682 c-25 -27 -21 -36 5 -12 12 11 19 22 16 25 -2 3 -12 -3 -21
-13z"/>
<path d="M2450 1591 c0 -5 5 -13 10 -16 6 -3 10 -2 10 4 0 5 -4 13 -10 16 -5
3 -10 2 -10 -4z"/>
<path d="M220 1490 c-8 -5 -12 -12 -9 -15 4 -3 12 1 19 10 14 17 11 19 -10 5z"/>
<path d="M376 1414 c-4 -9 -9 -14 -13 -11 -10 11 -32 -13 -27 -28 3 -7 0 -16
-7 -21 -8 -4 -10 -3 -5 4 10 17 -24 10 -54 -11 -13 -9 -20 -17 -14 -17 5 0 15
5 22 12 9 9 12 9 12 0 0 -7 -13 -15 -30 -18 -16 -4 -27 -10 -24 -15 3 -5 11
-6 17 -2 8 5 8 2 0 -9 -7 -8 -10 -18 -6 -22 4 -4 0 -4 -10 0 -9 3 -14 11 -10
17 4 6 1 7 -6 3 -9 -6 -8 -12 4 -26 12 -14 13 -20 4 -26 -7 -4 -10 -3 -6 3 4
6 1 13 -7 16 -10 4 -12 0 -9 -14 3 -10 10 -19 16 -19 6 0 7 -3 4 -6 -4 -4 -13
-1 -22 6 -13 11 -14 10 -9 -5 5 -13 4 -16 -5 -10 -10 6 -11 3 -2 -13 9 -17 8
-23 -6 -31 -16 -9 -16 -10 4 -8 12 0 19 5 16 11 -3 5 -1 6 5 2 6 -4 9 -13 6
-21 -4 -8 -11 -12 -18 -8 -6 4 -4 -2 4 -12 14 -17 13 -18 -5 -11 -15 5 -17 4
-8 -5 12 -12 37 -3 28 11 -3 5 -1 11 4 15 9 5 9 -7 0 -40 -4 -18 13 -45 25
-38 6 4 5 -1 -3 -11 -13 -15 -11 -20 14 -44 15 -15 25 -22 21 -15 -3 6 -2 14
3 17 5 4 8 -5 6 -19 -2 -20 0 -23 12 -14 7 7 16 9 20 5 3 -3 2 -6 -3 -6 -6 0
-10 -11 -10 -24 0 -21 3 -23 19 -14 16 8 18 7 13 -10 -6 -17 -3 -20 23 -18 16
1 29 -3 28 -8 -1 -6 4 -10 11 -8 6 1 11 -1 11 -5 -1 -5 -1 -17 1 -28 l1 -20 9
20 c7 17 9 17 9 3 1 -10 6 -18 12 -18 5 0 7 -6 3 -12 -4 -8 -3 -10 2 -5 5 5 9
13 9 18 0 5 4 8 10 7 5 -2 9 -15 9 -31 -1 -22 1 -25 12 -16 16 13 19 23 4 14
-16 -10 -12 1 6 15 12 11 15 11 12 -1 -2 -8 3 -13 10 -11 8 1 11 -2 7 -8 -3
-6 -11 -8 -16 -5 -15 10 -10 -2 8 -16 11 -10 14 -10 9 -1 -4 7 -1 12 9 12 9 0
13 -4 10 -10 -4 -6 7 -10 27 -10 22 0 37 -7 46 -20 7 -11 19 -20 28 -20 8 0
12 5 9 10 -4 6 -10 8 -15 5 -5 -3 -11 -1 -14 4 -9 15 21 7 41 -11 10 -8 25
-13 33 -11 12 4 12 3 2 -5 -11 -7 -9 -10 7 -15 14 -3 19 -1 15 6 -3 7 2 3 11
-8 9 -11 21 -20 28 -20 7 0 12 -5 12 -12 0 -6 4 -15 9 -20 5 -5 6 -3 2 5 -10
16 9 15 44 -3 27 -14 29 -14 24 2 -2 10 1 8 7 -4 14 -27 34 -31 24 -5 -5 13
-3 14 6 5 6 -6 19 -9 28 -6 12 4 11 2 -3 -9 -15 -12 -16 -17 -6 -23 9 -5 11
-4 6 3 -11 18 4 14 22 -6 10 -10 13 -12 8 -5 -5 8 -6 16 -2 20 3 3 6 1 6 -5 0
-7 7 -12 16 -12 8 0 12 -5 8 -11 -4 -7 0 -9 14 -5 11 4 23 2 26 -3 4 -6 14 -7
23 -4 11 4 14 3 9 -5 -6 -11 3 -14 32 -11 4 0 12 -12 19 -28 8 -18 12 -22 13
-10 0 9 5 17 11 17 5 0 7 -5 3 -12 -5 -8 -2 -9 9 -5 10 4 17 2 17 -4 0 -7 11
-9 28 -5 20 5 23 4 12 -4 -12 -8 -11 -10 6 -10 11 0 35 -7 53 -16 17 -9 39
-13 47 -10 8 3 12 2 9 -3 -3 -5 -1 -12 5 -16 6 -4 8 -10 6 -14 -3 -4 10 -6 27
-6 20 1 31 6 29 14 -1 7 2 9 9 5 9 -5 6 -12 -10 -25 -12 -10 -17 -20 -11 -24
5 -3 10 -2 10 3 0 12 36 22 45 13 4 -3 10 -6 13 -6 4 -1 17 -6 30 -13 12 -7
22 -9 22 -5 0 4 5 0 11 -10 6 -9 15 -14 21 -11 6 4 8 3 5 -3 -3 -5 11 -18 31
-28 42 -21 64 -27 57 -16 -2 4 2 8 11 8 10 0 12 -7 8 -21 -3 -12 -2 -16 3 -11
14 18 47 41 39 27 -4 -7 -1 -15 8 -18 9 -3 16 -11 16 -17 0 -5 -9 -2 -20 8
-11 10 -20 13 -20 8 0 -6 7 -14 16 -17 9 -3 12 -11 8 -18 -4 -7 3 -4 16 7 l23
20 -7 -25 c-3 -14 -3 -19 0 -12 5 10 9 10 20 1 12 -9 18 -9 27 0 9 10 8 11 -4
6 -20 -8 -35 10 -18 21 8 5 9 3 4 -6 -6 -10 -4 -12 8 -7 9 3 21 -1 29 -11 11
-13 11 -14 -1 -7 -10 5 -12 4 -7 -4 4 -6 11 -9 16 -6 5 3 10 0 13 -7 2 -7 2
-2 0 10 -2 15 0 21 7 17 5 -3 10 -15 10 -26 0 -10 5 -19 11 -19 5 0 7 4 4 10
-3 6 1 7 9 4 19 -7 21 -21 4 -26 -7 -3 -5 -7 6 -11 10 -4 15 -3 11 3 -6 10 19
15 40 10 6 -2 20 -3 33 -3 14 -1 19 -4 12 -11 -17 -17 -11 -29 7 -15 13 11 17
11 20 1 3 -6 10 -9 15 -6 7 4 8 2 4 -5 -6 -8 -12 -9 -20 -2 -9 8 -13 7 -13 -4
0 -8 3 -13 5 -10 3 3 11 0 19 -6 8 -8 13 -8 13 -1 0 14 33 8 38 -6 2 -7 10
-12 18 -12 8 0 14 -6 14 -12 0 -10 2 -10 8 0 6 9 14 7 31 -9 18 -17 25 -18 36
-9 18 15 20 -1 2 -20 -6 -8 -2 -6 10 3 16 14 23 15 29 6 4 -8 3 -10 -4 -5 -7
4 -12 2 -12 -3 0 -17 18 -13 30 7 7 11 10 12 7 2 -2 -8 6 -22 17 -32 19 -15
23 -15 44 -2 13 9 26 13 30 10 3 -3 0 -6 -6 -6 -7 0 -12 -9 -12 -20 0 -11 5
-20 11 -20 5 0 7 4 4 10 -3 6 1 7 9 4 9 -3 14 -9 12 -13 -2 -3 7 -7 20 -7 14
-1 21 2 18 8 -4 6 4 4 17 -3 13 -7 26 -12 29 -11 3 0 4 -5 4 -13 -1 -7 4 -11
12 -8 7 2 10 11 7 19 -3 8 0 14 7 14 6 0 9 -3 7 -7 -3 -5 -1 -17 2 -27 5 -14
19 -20 49 -23 23 -2 42 0 42 5 0 5 -11 8 -25 7 -14 -2 -23 1 -20 6 8 12 45 5
54 -10 6 -9 13 -7 27 11 19 23 51 38 39 18 -10 -17 7 -11 22 7 8 11 11 12 7 3
-7 -13 -5 -13 9 -1 9 7 17 10 17 7 0 -4 6 -1 14 6 8 7 12 16 10 20 -2 4 0 10
6 13 6 4 9 3 8 -2 -2 -4 0 -9 5 -10 7 -3 8 0 6 15 -1 4 -2 14 -3 22 0 8 -10
15 -20 15 -11 0 -21 7 -23 15 -4 12 -3 12 5 2 7 -11 10 -11 15 3 4 9 3 14 -2
10 -5 -3 -17 2 -25 11 -9 8 -16 11 -16 6 0 -5 -6 -9 -12 -10 -7 -1 -24 -3 -38
-5 -14 -1 -31 -7 -39 -11 -10 -6 -12 -5 -7 2 5 9 -3 11 -30 7 -34 -4 -36 -3
-18 10 23 17 38 19 28 3 -5 -7 -3 -8 5 -3 9 5 9 11 3 17 -6 6 -16 7 -24 2 -14
-9 -24 -12 -53 -16 -15 -2 -20 2 -19 18 1 15 -4 20 -16 17 -10 -3 -20 4 -26
18 -10 21 -11 22 -18 4 -4 -11 -4 -17 -1 -13 4 3 15 -2 26 -13 25 -25 25 -37
0 -15 -11 10 -25 15 -31 11 -6 -3 -10 -3 -9 2 5 30 -2 45 -21 40 -11 -3 -23 0
-27 5 -4 7 -1 8 8 4 8 -4 6 -1 -3 7 -10 8 -14 18 -10 23 4 4 -1 2 -12 -6 -16
-12 -20 -12 -31 3 -6 9 -15 14 -18 10 -4 -3 -4 4 -2 17 3 16 1 19 -8 11 -9 -7
-17 -7 -27 1 -12 8 -11 9 5 4 19 -6 19 -6 1 9 -10 8 -24 11 -30 8 -6 -4 -4 1
4 12 14 16 13 17 -8 11 -23 -8 -32 8 -10 17 10 4 10 6 1 6 -6 1 -14 -3 -18 -9
-3 -5 -12 -7 -20 -3 -18 6 -20 43 -3 43 6 0 8 3 5 6 -4 4 -13 1 -22 -6 -11 -9
-15 -9 -15 -1 0 7 -5 9 -12 5 -7 -5 -9 -2 -5 9 4 11 2 14 -8 10 -8 -3 -12 -10
-8 -16 3 -6 1 -7 -6 -3 -9 6 -9 11 1 24 12 14 10 14 -12 2 -23 -12 -24 -12
-11 3 14 17 6 21 -36 20 -7 -1 -10 3 -7 8 3 5 0 9 -7 9 -8 0 -8 4 1 15 11 13
10 14 -4 9 -11 -4 -22 0 -30 11 -7 10 -20 16 -28 12 -11 -4 -15 0 -12 11 5 21
-72 77 -82 60 -4 -6 -3 -9 2 -5 5 3 25 -7 43 -22 25 -21 31 -30 21 -36 -8 -5
-11 -4 -7 2 7 11 -38 47 -58 48 -5 0 -9 9 -7 19 2 13 0 16 -10 10 -17 -11 -38
-14 -37 -6 3 20 -2 32 -11 27 -5 -3 -10 -1 -10 4 0 18 17 12 33 -12 l16 -22
-6 23 c-6 24 -42 38 -69 28 -13 -5 -14 -3 -7 6 7 10 0 21 -25 43 -20 17 -33
24 -28 18 4 -7 2 -13 -3 -13 -6 0 -11 7 -11 15 0 8 -7 15 -16 15 -9 0 -12 -5
-8 -12 5 -7 3 -8 -5 -3 -8 4 -10 17 -7 34 5 19 4 22 -3 11 -11 -16 -12 -15
-30 15 -11 19 -11 19 -9 1 2 -10 -4 -21 -12 -23 -10 -3 -11 -2 -4 4 7 5 8 16
3 28 l-8 20 -1 -20 c-1 -11 -4 -15 -6 -8 -3 7 -13 9 -22 6 -13 -4 -13 -2 3 11
17 15 17 17 2 12 -11 -3 -17 0 -17 9 0 8 -9 15 -20 15 -11 0 -20 5 -20 11 0 5
5 7 12 3 7 -4 8 -3 4 4 -9 16 -11 15 -32 -5 -16 -16 -16 -16 -10 5 5 15 3 22
-6 22 -10 0 -9 3 2 10 9 6 10 10 3 10 -6 0 -14 -4 -18 -10 -9 -15 -35 0 -35
21 0 10 -4 19 -10 19 -5 0 -7 -8 -3 -17 5 -14 1 -12 -14 4 -11 13 -23 19 -27
16 -4 -4 -4 0 0 10 4 12 1 17 -11 17 -10 0 -14 -5 -9 -12 3 -7 -6 0 -21 15
-24 25 -32 41 -34 71 -1 4 -10 -2 -22 -15 -17 -20 -19 -21 -10 -4 8 18 6 21
-17 23 -15 1 -33 9 -42 18 -8 9 -10 14 -4 10 7 -3 14 0 17 7 3 9 -6 12 -34 10
-22 -1 -39 3 -39 8 0 6 5 7 10 4 6 -3 10 0 10 8 0 7 -7 14 -15 14 -8 0 -15 -5
-15 -10 0 -6 -3 -7 -6 -4 -4 4 -1 14 7 23 13 16 12 16 -9 5 -12 -6 -22 -8 -21
-4 4 22 -4 32 -31 43 -16 7 -27 16 -24 21 3 5 -2 6 -10 3 -15 -6 -21 6 -16 31
1 5 -9 1 -22 -10 -13 -11 -20 -16 -16 -11 4 5 0 15 -8 23 -8 8 -11 19 -8 25 4
7 2 8 -4 4 -6 -4 -9 -14 -6 -24 5 -15 4 -15 -6 1 -9 14 -9 22 2 34 11 14 11
15 -2 7 -8 -5 -25 -9 -37 -9 -18 -1 -20 4 -17 30 2 21 1 26 -6 15 -7 -12 -12
-12 -22 -2 -6 6 -17 12 -22 12 -6 0 0 -7 12 -16 12 -8 22 -19 22 -24 0 -5 -12
2 -26 15 -14 13 -31 23 -37 22 -6 -1 -13 8 -15 21 -2 12 -8 19 -14 16 -6 -4
-14 -1 -18 6 -5 8 -9 7 -13 -5 -4 -9 -3 -13 3 -10 6 4 7 -1 3 -11 -5 -15 -7
-15 -15 0 -5 9 -14 13 -20 10 -6 -4 -8 -3 -4 4 3 6 -1 18 -10 26 -10 11 -11
16 -3 16 7 0 10 3 6 6 -3 3 -11 3 -17 -1 -8 -5 -8 -11 1 -21 7 -8 7 -14 1 -14
-9 0 -24 24 -26 42 -1 3 -5 10 -10 15 -5 5 -6 3 -2 -4 4 -8 2 -13 -6 -13 -9 0
-9 -3 2 -10 13 -8 12 -10 -2 -10 -10 0 -18 5 -18 10 0 6 -7 10 -15 10 -8 0
-15 -4 -15 -8 0 -5 -7 -9 -15 -9 -11 0 -12 4 -3 14 8 11 7 12 -5 7 -8 -3 -25
-1 -36 5 -14 8 -22 8 -27 -1 -4 -6 -3 -8 3 -5 6 4 17 -1 24 -11 13 -15 12 -16
-3 -3 -13 9 -18 10 -18 2 0 -8 -4 -8 -14 1 -8 7 -11 17 -8 22 3 5 0 6 -6 2 -6
-4 -8 -14 -5 -24 6 -15 5 -15 -12 2 -15 15 -20 16 -24 5 -3 -8 -12 -14 -18
-13 -7 1 -17 2 -23 3 -5 0 -7 8 -4 16 4 8 4 15 1 15 -3 0 -8 -7 -11 -16z m-19
-29 c0 -8 -4 -12 -9 -9 -5 3 -6 10 -3 15 9 13 12 11 12 -6z m33 1 c0 -3 -4 -8
-10 -11 -5 -3 -10 -1 -10 4 0 6 5 11 10 11 6 0 10 -2 10 -4z m-163 -193 c0 -9
-4 -10 -14 -2 -7 6 -13 12 -13 14 0 1 6 2 13 2 8 0 14 -6 14 -14z m783 -7 c0
-3 -4 -8 -10 -11 -5 -3 -10 -1 -10 4 0 6 5 11 10 11 6 0 10 -2 10 -4z m35 -24
c-3 -3 -11 0 -18 7 -9 10 -8 11 6 5 10 -3 15 -9 12 -12z m-801 -73 c-3 -5 -10
-7 -15 -3 -5 3 -7 10 -3 15 3 5 10 7 15 3 5 -3 7 -10 3 -15z m11 -49 c-3 -5
-1 -10 4 -10 6 0 11 -5 11 -11 0 -8 -5 -8 -15 1 -17 14 -20 30 -4 30 5 0 7 -4
4 -10z m531 -326 c1 -9 0 -13 -4 -10 -3 4 -7 14 -8 22 -1 9 0 13 4 10 3 -4 7
-14 8 -22z m54 -30 c0 -2 -9 0 -20 6 -11 6 -20 13 -20 16 0 2 9 0 20 -6 11 -6
20 -13 20 -16z m859 12 c9 -11 9 -16 0 -22 -8 -4 -9 -3 -5 5 4 7 -2 15 -16 20
-15 7 -17 10 -7 10 9 1 22 -5 28 -13z m-345 -218 c-3 -4 -11 -5 -19 -1 -21 7
-19 12 4 10 11 0 18 -5 15 -9z m228 -93 c2 3 5 -2 5 -9 0 -12 -7 -11 -29 5
-34 24 -38 36 -5 14 13 -8 26 -13 29 -10z m487 -208 c0 -9 -2 -8 -6 1 -2 6
-10 9 -15 6 -7 -4 -8 -2 -4 5 9 13 26 5 25 -12z m57 -23 c1 -9 0 -13 -4 -10
-3 4 -7 14 -8 22 -1 9 0 13 4 10 3 -4 7 -14 8 -22z m124 -48 c0 -3 -4 -8 -10
-11 -5 -3 -10 -1 -10 4 0 6 5 11 10 11 6 0 10 -2 10 -4z m211 -65 c5 8 9 9 9
3 0 -6 -6 -16 -13 -22 -10 -8 -13 -5 -14 16 0 17 1 20 4 8 4 -15 7 -16 14 -5z"/>
<path d="M403 1415 c0 -8 4 -12 9 -9 5 3 6 10 3 15 -9 13 -12 11 -12 -6z"/>
<path d="M2424 1359 c0 -13 3 -15 13 -7 7 6 13 12 13 13 0 2 -6 5 -13 8 -7 3
-13 -3 -13 -14z"/>
<path d="M780 1339 c0 -4 10 -6 21 -4 32 6 34 13 4 13 -14 0 -25 -4 -25 -9z"/>
<path d="M2410 1245 c-7 -9 -8 -15 -2 -15 5 0 12 7 16 15 3 8 4 15 2 15 -2 0
-9 -7 -16 -15z"/>
<path d="M2395 1100 c-4 -6 -12 -7 -18 -3 -8 4 -7 1 1 -9 10 -13 10 -17 0 -20
-10 -4 -11 -8 -1 -20 7 -8 10 -17 7 -20 -3 -3 -1 -9 4 -12 11 -7 10 19 -1 30
-4 4 -1 14 5 22 12 13 20 42 13 42 -2 0 -7 -5 -10 -10z"/>
<path d="M2361 1004 c0 -11 3 -14 6 -6 3 7 2 16 -1 19 -3 4 -6 -2 -5 -13z"/>
<path d="M1285 1000 c3 -5 8 -10 11 -10 2 0 4 5 4 10 0 6 -5 10 -11 10 -5 0
-7 -4 -4 -10z"/>
<path d="M1306 983 c-6 -14 -5 -15 5 -6 7 7 10 15 7 18 -3 3 -9 -2 -12 -12z"/>
<path d="M1350 962 c0 -5 7 -9 15 -9 8 0 12 4 9 9 -3 4 -9 8 -15 8 -5 0 -9 -4
-9 -8z"/>
<path d="M1400 921 c0 -6 4 -13 10 -16 6 -3 7 1 4 9 -7 18 -14 21 -14 7z"/>
<path d="M376 885 c4 -8 11 -15 16 -15 6 0 5 6 -2 15 -7 8 -14 15 -16 15 -2 0
-1 -7 2 -15z"/>
<path d="M2949 898 c-7 -29 -5 -36 7 -31 16 6 18 19 4 28 -5 3 -10 5 -11 3z"/>
<path d="M2951 851 c-8 -5 -9 -11 -3 -15 5 -3 12 1 16 9 6 17 6 18 -13 6z"/>
<path d="M2977 805 c-4 -8 -3 -16 1 -19 4 -3 9 4 9 15 2 23 -3 25 -10 4z"/>
<path d="M2340 800 c0 -5 5 -10 11 -10 5 0 7 5 4 10 -3 6 -8 10 -11 10 -2 0
-4 -4 -4 -10z"/>
<path d="M2958 773 c6 -2 9 -10 6 -15 -4 -7 -2 -8 5 -4 13 9 5 26 -12 25 -9 0
-8 -2 1 -6z"/>
<path d="M656 741 c-3 -5 1 -11 9 -14 9 -4 12 -1 8 9 -6 16 -10 17 -17 5z"/>
<path d="M2355 649 c-4 -6 -5 -12 -2 -15 2 -3 7 2 10 11 7 17 1 20 -8 4z"/>
<path d="M2975 620 c3 -5 8 -10 11 -10 2 0 4 5 4 10 0 6 -5 10 -11 10 -5 0 -7
-4 -4 -10z"/>
<path d="M1055 560 c3 -5 8 -10 11 -10 2 0 4 5 4 10 0 6 -5 10 -11 10 -5 0 -7
-4 -4 -10z"/>
<path d="M1218 513 c6 -2 9 -10 6 -15 -4 -7 -2 -8 5 -4 13 9 5 26 -12 25 -9 0
-8 -2 1 -6z"/>
<path d="M1250 496 c0 -2 7 -7 16 -10 8 -3 12 -2 9 4 -6 10 -25 14 -25 6z"/>
<path d="M1397 443 c-3 -5 -2 -15 4 -23 5 -9 9 -10 9 -3 0 13 17 12 40 -2 13
-8 13 -7 1 8 -8 10 -16 15 -19 12 -3 -3 -11 0 -18 6 -7 5 -15 6 -17 2z"/>
<path d="M2125 401 c-3 -5 -2 -12 3 -15 5 -3 9 1 9 9 0 17 -3 19 -12 6z"/>
<path d="M2250 314 c0 -13 18 -39 24 -34 2 3 -2 14 -10 24 -8 11 -14 16 -14
10z"/>
<path d="M2570 285 c0 -10 3 -15 7 -12 3 4 12 2 19 -4 9 -7 14 -6 20 3 4 7 3
10 -1 5 -5 -4 -17 0 -27 10 -17 15 -18 15 -18 -2z"/>
<path d="M2676 243 c-6 -14 -5 -15 5 -6 7 7 10 15 7 18 -3 3 -9 -2 -12 -12z"/>
<path d="M1874 238 c-4 -7 -4 -10 1 -6 4 4 16 3 26 -2 12 -7 20 -6 25 2 4 7 4
10 -1 6 -4 -4 -16 -3 -26 2 -12 7 -20 6 -25 -2z"/>
<path d="M2444 202 c3 -5 0 -13 -6 -15 -9 -4 -10 -6 -1 -6 17 -1 25 16 12 25
-7 4 -9 3 -5 -4z"/>
<path d="M2566 182 c-3 -5 1 -9 9 -9 8 0 12 4 9 9 -3 4 -7 8 -9 8 -2 0 -6 -4
-9 -8z"/>
<path d="M2695 160 c-3 -5 -1 -10 4 -10 6 0 11 5 11 10 0 6 -2 10 -4 10 -3 0
-8 -4 -11 -10z"/>
<path d="M2355 39 c-3 -4 2 -6 10 -5 21 3 28 13 10 13 -9 0 -18 -4 -20 -8z"/>
<path d="M2561 16 c-9 -11 -6 -13 19 -12 33 1 39 10 14 20 -21 8 -20 8 -33 -8z"/>
</g>
</svg>
